# xmcd CD database file
#
# Track frame offsets:
#	151
#	14355
#	38529
#	39893
#	58360
#	78738
#	99053
#	114190
#	137849
#	154278
#	178718
#	203843
#
# Disc length: 2922 seconds
#
# Revision: 0
# Processed by: cddbd v1.5.2PL0 Copyright (c) Steve Scherf et al.
# Submitted via: CDex 1.51
#
DISCID=940b680c
DTITLE=The Five Corners Quintet - Chasin' the Jazz Gone By
DYEAR=2005
DGENRE=Jazz
TTITLE0=Blue Cycles
TTITLE1=Trading Eigths
TTITLE2=Interlope
TTITLE3=This Could Be The Start Of Something
TTITLE4=Straight Up
TTITLE5=Three Corners
TTITLE6=Case Study
TTITLE7=Lighthouse
TTITLE8=Before We Say Goodby
TTITLE9=Unsquare Bossa
TTITLE10=The Devil Kicks
TTITLE11=Jamming With Mr. Hoagland
EXTD=YEAR: 2005
EXTT0=
EXTT1=
EXTT2=
EXTT3=
EXTT4=
EXTT5=
EXTT6=
EXTT7=
EXTT8=
EXTT9=
EXTT10=
EXTT11=
PLAYORDER=
